# xmcd
#
# Track frame offsets: 
#        150
#        22857
#        45622
#        64472
#        86189
#        106881
#        136388
#        161845
#        181491
#        195503
#
# Disc length: 2832 seconds
#
# Revision: 0
# Processed by: cddbd v1.5.2PL0 Copyright (c) Steve Scherf et al.
# Submitted via: ExactAudioCopyFreeDBPlugin 1.0
#
DISCID=870b0e0a
DTITLE=Various Artist - MC R&B - Disc 1
DYEAR=2007
DGENRE=R&B
TTITLE0=Brownstone - If You Love Me
TTITLE1=Joe - Don't Wanna Be A Player
TTITLE2=Aaliyah - Age Ain't Nothing But A Number
TTITLE3=Wayne Frazer - Take You Home
TTITLE4=Lenice Feat. Lady B - Just The Way I Like It
TTITLE5=George Treverson - Close To You
TTITLE6=Evon Nelson - Stay
TTITLE7=Lorenzo Kitching - The Hotness
TTITLE8=XTC - Beep Ya
TTITLE9=Justa - Playn' Cards
EXTD=
EXTT0=
EXTT1=
EXTT2=
EXTT3=
EXTT4=
EXTT5=
EXTT6=
EXTT7=
EXTT8=
EXTT9=
PLAYORDER=
